<mxfile host="app.diagrams.net" agent="Mozilla/5.0 (Windows NT 10.0; Win64; x64) AppleWebKit/537.36 (KHTML, like Gecko) Chrome/141.0.0.0 Safari/537.36" version="28.2.8">
  <diagram name="第 1 页" id="5x4X0rqThPhixG-6Jl1d">
    <mxGraphModel dx="1554" dy="858" grid="1" gridSize="10" guides="1" tooltips="1" connect="1" arrows="1" fold="1" page="1" pageScale="1" pageWidth="827" pageHeight="1169" math="0" shadow="0">
      <root>
        <mxCell id="0" />
        <mxCell id="1" parent="0" />
        <mxCell id="KDVijYrfd6x-eTJw35pw-3" value="杨俊容" style="rounded=1;whiteSpace=wrap;html=1;" parent="1" vertex="1">
          <mxGeometry x="240" y="240" width="80" height="40" as="geometry" />
        </mxCell>
        <UserObject label="江洪" link="https://viewer.diagrams.net/?tags=%7B%7D&amp;lightbox=1&amp;highlight=0000ff&amp;edit=_blank&amp;layers=1&amp;nav=1&amp;title=%E6%B1%9F%E6%B0%8F%E5%AE%B6%E6%97%8F%E5%9B%BE.drawio&amp;dark=auto#Uhttps%3A%2F%2Fraw.githubusercontent.com%2Ftoppemonkey%2Fprocessing_folder%2Fmain%2F%E5%AE%B6%E6%97%8F%E7%BB%93%E6%9E%84%E5%9B%BE%2F%E6%B1%9F%E6%B0%8F%E5%AE%B6%E6%97%8F%E5%9B%BE.drawio" id="KDVijYrfd6x-eTJw35pw-4">
          <mxCell style="rounded=0;whiteSpace=wrap;html=1;" parent="1" vertex="1">
            <mxGeometry x="350" y="240.0000000000001" width="80" height="40" as="geometry" />
          </mxCell>
        </UserObject>
        <mxCell id="KDVijYrfd6x-eTJw35pw-5" value="夫妻" style="edgeStyle=orthogonalEdgeStyle;rounded=0;orthogonalLoop=1;jettySize=auto;html=1;exitX=1;exitY=0.5;exitDx=0;exitDy=0;entryX=-0.03;entryY=0.527;entryDx=0;entryDy=0;entryPerimeter=0;endArrow=none;endFill=0;" parent="1" source="KDVijYrfd6x-eTJw35pw-3" target="KDVijYrfd6x-eTJw35pw-4" edge="1">
          <mxGeometry relative="1" as="geometry" />
        </mxCell>
      </root>
    </mxGraphModel>
  </diagram>
</mxfile>
